<?xml version="1.0" encoding="iso-8859-1"?>
<!-- Generator: Adobe Illustrator 21.0.0, SVG Export Plug-In . SVG Version: 6.00 Build 0)  -->
<svg version="1.1" id="Capa_1" xmlns="http://www.w3.org/2000/svg" xmlns:xlink="http://www.w3.org/1999/xlink" x="0px" y="0px"
	 viewBox="0 0 339.02 50.59" style="enable-background:new 0 0 339.02 50.59;" xml:space="preserve">
<g>
	<path d="M150.05,27.72l-3.13,11.5c-0.66,0.06-1.48,0.16-2.77,0.16c-6.14,0-5.46-1.85-2.87-11.87c2.7-10.42,4.26-12.31,8.09-12.31
		c3.69,0,3.72,2.49,2.78,5.63h9.36c1.52-5.87,0.51-11.07-10.44-11.07c-12.19,0-15.5,2.57-19.43,17.76
		c-3.66,14.14-2.46,17.89,10.72,17.89c6.25,0,8.87-0.46,12.67-1.15l4.41-16.53L150.05,27.72L150.05,27.72z M172.37,39.07
		c-1.22,0-1.65-0.37-1.42-1.36l2.12-8.32h12.52l1.41-5.46h-12.53l1.42-5.55c0.37-1.45,1.41-2.68,3.42-2.68h10.03l1.41-5.46H176.2
		c-6.04,0-7.86,1.08-10.21,10.17l-4.33,16.63c-1.33,5.58,0.33,8.01,4.89,8.01h12.57c2.47,0,4.07-1.32,4.84-3.33l1.03-2.66H172.37
		L172.37,39.07L172.37,39.07z M315.62,39.07c-1.22,0-1.65-0.37-1.42-1.36l2.12-8.32h12.52l1.41-5.46h-12.52l1.42-5.55
		c0.38-1.45,1.41-2.68,3.42-2.68h10.03l1.41-5.46h-14.57c-6.05,0-7.86,1.08-10.22,10.17l-4.32,16.63c-1.33,5.58,0.33,8.01,4.89,8.01
		h12.58c2.47,0,4.07-1.32,4.84-3.33l1.03-2.66H315.62L315.62,39.07z M109.37,39.11h-2.57l6.05-23.4c0.78,0,1.07-0.03,3-0.03
		c5.44,0,5.43,1.8,2.83,11.82C116.06,37.65,114.54,39.11,109.37,39.11L109.37,39.11L109.37,39.11z M117.4,10.25h-12.54l-8.73,33.77
		c-0.15,0.58,0.19,1.04,0.75,1.04l11.17,0c14.02,0,16.39-2.68,20.23-17.56C131.63,14.58,129.57,10.25,117.4,10.25L117.4,10.25
		L117.4,10.25z M292.76,10.18c-7.22,0-10.58,0.16-12.55,0.07l-8.74,33.77c-0.15,0.58,0.19,1.04,0.75,1.04h8.38l7.59-29.35
		c0.77,0,1.95-0.07,3.14-0.07c4.07,0,4.61,1.45,3.53,5.6l-5.89,22.77c-0.15,0.58,0.19,1.04,0.75,1.04h8.38l6.16-23.82
		C306.39,12.99,302.77,10.18,292.76,10.18L292.76,10.18L292.76,10.18z M220.21,10.25l-1.45,5.66h9.31c0.09,0,0.09,0.12,0.01,0.18
		c-1.49,1.11-2.39,2.71-2.82,4.38l-6.1,23.55c-0.15,0.58,0.19,1.04,0.76,1.04l8.99,0l7.56-29.16h4.61c2.59,0,4.16-1.08,5.03-3.34
		l0.88-2.31L220.21,10.25L220.21,10.25L220.21,10.25z M89.8,45.06l8.73-33.77c0.15-0.58-0.19-1.05-0.75-1.05h-8.85L80.2,44.01
		c-0.15,0.58,0.19,1.04,0.75,1.04H89.8L89.8,45.06z M253.63,39.69c-4.02,0-4.62-1.47-1.81-12.32c2.34-9.03,4.56-12.18,8.15-12.18
		c4.02,0,4.46,2.16,1.87,12.18C259.27,37.3,256.74,39.69,253.63,39.69L253.63,39.69L253.63,39.69z M261.37,9.77
		c-10.54,0-15.11,1.88-19.26,17.89c-3.58,13.87-0.71,17.89,10.01,17.89c10.91,0,15.22-2.24,19.26-17.89
		C274.3,16.33,273.71,9.77,261.37,9.77L261.37,9.77z"/>
	<path style="fill:#FF0000;" d="M10.48,27.91l5.45-19.13c0.53-1.97,2.7-3.76,4.9-3.76l16.68,0c0.28,0,0.37,0.36,0.15,0.51
		c-8.67,5.93-19.13,14.74-26.71,22.62C10.75,28.37,10.4,28.2,10.48,27.91L10.48,27.91L10.48,27.91z M10.48,27.91L10.48,27.91
		L10.48,27.91L10.48,27.91z"/>
	<path d="M23.65,39.4l5.4-18.88c0.08-0.29-0.23-0.49-0.46-0.3c-7.94,6.83-17.52,16.81-23.52,24.35C4.93,44.77,5,45.06,5.26,45.06
		h23.36c9.85,0,15.24-3.05,17.2-10.34c1.59-5.94-1.52-9.99-6.49-11.03c-0.09-0.02-0.17-0.19,0-0.21c4.2-0.72,8.44-2.41,9.95-8.54
		c1.64-6.63-3.44-10.27-9.27-9.9l-8.93,31.26c-0.48,1.69-2.29,3.11-4.01,3.11H23.65L23.65,39.4z M74.41,31.1
		c-0.31-1.04-0.65-1.79-1.14-2.41c-0.06-0.08-0.08-0.19,0.04-0.22c4-1.23,6.62-3.76,7.73-8.05c1.46-5.66-2.11-10.17-11.12-10.17
		h-13.4l-8.74,33.77c-0.15,0.58,0.19,1.04,0.75,1.04h8.38l7.59-29.35c0.81,0,1.59-0.03,3.51-0.03c3.23,0,4.42,1.99,3.73,4.68
		c-0.92,3.54-3.66,5.53-6.92,5.53h-1.23l3.49,16.85c0.41,1.64,1.24,2.32,3.13,2.32h7.48L74.41,31.1L74.41,31.1L74.41,31.1z
		 M188.4,33.27c-3.55,8.48,1.08,12.32,10.5,12.32c8.6,0,13.37-2.04,15.41-9.95c0.7-2.7,0.25-5.62-1.41-7.42
		c-3.22-3.49-9.4-4.15-11.57-6.17c-1.11-1.03-1.1-2.47-0.77-3.71c0.59-2.28,2.12-3.52,4.6-3.52c3.89,0,3.98,2.39,3.03,5.23l8.34,0
		c1.96-5.92-0.61-10.57-10.43-10.57c-8.26,0-12.72,3.24-14.32,9.45c-0.44,1.7-0.28,4.48,0.74,6.23c2.27,3.89,8.28,4.37,11.61,6.68
		c1.44,1.01,1.49,2.36,1.11,3.85c-0.75,2.9-2.21,4.28-5.1,4.28c-2.79,0-4.46-1.62-2.87-6.7L188.4,33.27L188.4,33.27z"/>
</g>
</svg>
