<?xml version="1.0" encoding="UTF-8"?>
<svg width="85px" height="85px" viewBox="0 0 85 85" version="1.1" xmlns="http://www.w3.org/2000/svg" xmlns:xlink="http://www.w3.org/1999/xlink">
    <title>Group</title>
    <defs>
        <rect id="path-1" x="0" y="0" width="1440" height="70"></rect>
        <filter x="-0.5%" y="-7.1%" width="101.0%" height="120.0%" filterUnits="objectBoundingBox" id="filter-2">
            <feOffset dx="0" dy="2" in="SourceAlpha" result="shadowOffsetOuter1"></feOffset>
            <feGaussianBlur stdDeviation="2" in="shadowOffsetOuter1" result="shadowBlurOuter1"></feGaussianBlur>
            <feColorMatrix values="0 0 0 0 0   0 0 0 0 0   0 0 0 0 0  0 0 0 0.1 0" type="matrix" in="shadowBlurOuter1"></feColorMatrix>
        </filter>
        <polygon id="path-3" points="0.000106596867 0.0468923077 48.9387625 0.0468923077 48.9387625 53.4807692 0.000106596867 53.4807692"></polygon>
    </defs>
    <g id="Symbols" stroke="none" stroke-width="1" fill="none" fill-rule="evenodd">
        <g id="Group-2" transform="translate(-135.000000, 0.000000)">
            <g id="Rectangle-Copy-3">
                <use fill="black" fill-opacity="1" filter="url(#filter-2)" xlink:href="#path-1"></use>
                <use fill="#FFFFFF" fill-rule="evenodd" xlink:href="#path-1"></use>
            </g>
            <g id="Group" transform="translate(135.000000, 0.000000)">
                <rect id="Rectangle" fill="#D30000" x="0" y="0" width="85" height="85"></rect>
                <g transform="translate(18.000000, 16.000000)" id="Fshield">
                    <g id="Fill-1-Clipped" transform="translate(0.000000, 0.472500)">
                        <mask id="mask-4" fill="white">
                            <use xlink:href="#path-3"></use>
                        </mask>
                        <g id="path-1"></g>
                        <path d="M48.8006062,7.06735385 C48.8006062,7.06735385 26.6910359,-8.72868462 0.174152982,7.06735385 C0.174152982,7.06735385 -3.64403074,37.3078731 24.4866191,53.4808731 C24.4866191,53.4808731 51.0775234,40.4668731 48.8006062,7.06735385 M24.5236298,50.6225077 C-0.206093704,35.4277385 2.57376307,8.49679615 2.57376307,8.49679615 C26.225614,-4.79239615 46.4861714,8.60946923 46.4861714,8.60946923 C47.8084159,38.1718731 24.5236298,50.6225077 24.5236298,50.6225077" id="Fill-1" fill="#FEFEFE" fill-rule="nonzero" mask="url(#mask-4)"></path>
                    </g>
                    <path d="M26.5442607,18.1468038 C26.5442607,18.1468038 25.0014731,22.2092654 26.2502032,24.5411308 C26.2502032,24.5411308 30.6570088,21.8328231 35.0643214,23.4118038 L32.4198325,30.1825731 C32.4198325,30.1825731 30.289437,28.6025538 28.1600556,29.9561885 C28.1600556,29.9561885 29.8493649,35.3728038 26.0296602,39.4347462 C22.2104624,43.4972077 18.5372795,43.2718615 17.3620637,42.8959385 C17.3620637,42.8959385 18.9788726,40.1876308 19.1248873,37.7051885 C19.27293,35.2222269 18.6113008,33.3415731 18.6113008,33.3415731 C18.6113008,33.3415731 17.4355781,30.7838423 17.2885493,26.9488038 C17.1415206,23.1111692 19.5664805,18.4479577 20.3741244,17.4702462 C20.3741244,17.4702462 16.3333697,16.2656308 10.5302982,20.1769962 C10.5302982,20.1769962 9.50261819,15.5137846 13.4683376,11.0748808 C17.4355781,6.63753462 23.2391565,8.14174615 23.2391565,8.14174615 L29.8493649,9.57118846 C29.8493649,9.57118846 34.2718873,10.4216885 36.0189941,9.72176538 C37.7072894,9.04468846 39.1775766,8.06645769 39.9852205,7.38938077 C39.9852205,7.38938077 40.5241568,10.3240731 39.7408487,12.6299769 C39.132961,14.4161308 37.9643362,15.8201308 35.6519293,17.1685731 C33.0074404,18.7106885 29.5553074,18.7485923 26.5442607,18.1468038" id="Fill-4" fill="#FEFEFE" fill-rule="nonzero"></path>
                </g>
            </g>
        </g>
    </g>
</svg>