<?xml version="1.0" encoding="iso-8859-1"?>
<!-- Generator: Adobe Illustrator 21.0.0, SVG Export Plug-In . SVG Version: 6.00 Build 0)  -->
<svg version="1.1" id="Capa_1" xmlns="http://www.w3.org/2000/svg" xmlns:xlink="http://www.w3.org/1999/xlink" x="0px" y="0px"
	 viewBox="0 0 693 99" style="enable-background:new 0 0 693 99;" xml:space="preserve">
<g>
	<g>
		<defs>
			<rect id="SVGID_1_" width="693" height="99"/>
		</defs>
		<clipPath id="SVGID_2_">
			<use xlink:href="#SVGID_1_"  style="overflow:visible;"/>
		</clipPath>
		<path style="clip-path:url(#SVGID_2_);fill:#EC1E2F;" d="M0,30.89C0,14.01,0,30.89,0,30.89S0-0.81,31.25,0.43
			C62.54,1.66,63.35,11.54,90.9,0c2.1,4.96,0,21.81-16.43,26.36c-13.57,3.72-25.09,2.05-25.09,2.05c-2.07,4.11-3.27,10.7,0,16.03
			c6.58-4.49,16.89-8.61,26.33-0.38L66.84,61.3c-4.94-2.03-11.72-2.84-14.99-0.39c0.81,7.82,2.03,17.7-2.89,24.28
			c-4.93,6.58-12.38,15.65-29.24,12.36c4.15-9.47,6.07-9.97,1.24-32.91c-5.59-26.71,6.98-37.86,6.98-37.86
			C20.16,23.05,0,30.89,0,30.89 M89.68,27.16l25.93-9.47c7.41-0.41,10.32,13.58,9.9,23.06c-0.81,16.87-0.25,28.41,7.62,30.86
			l-26.56,9.02c-5.36-2.89-11.11-4.51-10.71-17.25c0.41-12.75-0.41-23.46-0.41-26.76C95.45,33.36,89.68,27.16,89.68,27.16
			 M179.81,41.99c0,0,6.15,9.66,7.82,12.12l22.41-11.9l-14.81-23.67l-21.44,8.57c-1.53-5.38-4.28-9.6-8.38-9.39l-24.68,9.46
			c0,0,5.75,6.19,5.75,9.49c0,3.28,0.84,13.96,0.43,26.74c-0.43,12.76,5.34,14.41,10.71,17.27l25.27-9.04
			c-7.33-2.34-8.3-12.65-7.73-27.9L179.81,41.99z M254.29,60.48l33.73-16.44l-20.99-25.51c0,0-0.23,0-0.7,0.02h-0.48h0.48
			c-3.9,0.11-23.58,1.14-34.69,7.78c-12.31,7.41-16.84,16.07-15.62,27.99c1.22,11.93,14.79,27.14,33.34,27.14
			c10.66,0,17.27,0.84,25.92-3.7l11.09-17.67C272.39,64.63,261.25,67.52,254.29,60.48 M266.62,18.54h-0.05H266.62z M266.87,18.54
			h-0.14H266.87z M244.62,50.63c-2.88-6.19-2.28-12.75,3.9-15.24l7.41,9.05L244.62,50.63z M658.56,61.12l33.75-16.46l-20.99-25.51
			c0,0-0.25,0-0.7,0.02c-0.18,0-0.34,0-0.5,0.02c0.2-0.02,0.34-0.02,0.5-0.02c-3.88,0.11-23.58,1.14-34.68,7.8
			c-12.35,7.39-16.89,16.05-15.67,27.99c1.27,11.9,14.83,27.14,33.34,27.14c10.68,0,17.29,0.83,25.93-3.72l11.11-17.68
			C676.66,65.22,665.57,68.1,658.56,61.12 M670.91,19.15c0,0-0.04,0-0.07,0.02C670.87,19.15,670.91,19.15,670.91,19.15
			 M671.16,19.15H671H671.16z M648.89,51.24c-2.88-6.17-2.25-12.75,3.9-15.24l7.41,9.07L648.89,51.24z M366.82,35.81l-7.62,7.41
			c0,0-12.56-6.77-15.42-8.86c-4.53-3.26-8.43-0.18-5.16,2.71c3.29,2.88,18.62,11.9,24.71,16.03c5.35,3.65,9.04,9.47,0.84,15.21
			c-8.25,5.77-31.27,16.91-31.27,16.91l-32.1-19.36l7.8-7.8c0,0,17.67,9.87,19.72,11.5c2.1,1.64,8.66-1.25,2.5-4.92
			c-6.18-3.74-23.49-13.58-26.76-16.47c-3.27-2.88-6.98-8.63,4.13-14.82c11.12-6.17,26.76-15.21,26.76-15.21L366.82,35.81z
			 M413.31,37.06h15.04V21.4h-15.04V6.18l-42.36,30.89h13.34V64.2c0,7.01,2.89,13.57,10.3,17.27l26.94-9.65
			c-9.04-6.99-8.23-9.27-8.23-11.34L413.31,37.06L413.31,37.06z M505.28,32.51c-9.89-9.41-30.45-14.38-30.45-14.38
			s-27.21,6.81-34.99,19.35c-7.39,11.93-0.81,23.85,6.18,31.67c6.98,7.8,18.93,10.68,32.1,13.57c0,0,10.3-2.05,23.47-10.28
			c10.75-6.72,11.52-13.17,11.52-21.41C513.11,42.81,514.33,41.17,505.28,32.51 M481.01,64.21c-21.4-9.09-10.49-30.03-10.49-30.03
			S491.72,45.31,481.01,64.21 M550.94,19.36l-25.88,9.67l7.17,8.85V71.6c0,2.5,1.44,7.42,8.45,10.71l25.5-8.21
			c-5.77-5.37-6.58-8.25-6.58-11.54V42l9.09-2.88c3.67,2.88,5.3,4.93,5.3,9.03v21c0,1.67,0,5.34,3.31,8.61
			c3.29,3.34,5.77,5.39,5.77,5.39l25.5-9.9c-2.88-1.64-7.39-4.1-7.39-11.93c0-7.8,0.84-21.81,0-25.51
			c-0.81-3.71-4.53-18.11-20.99-14.39c-10.43,2.37-21.8,7.82-21.8,7.82S555.9,24.31,550.94,19.36"/>
	</g>
</g>
</svg>
